<svg width="20" height="16" viewBox="0 0 20 16" fill="none" xmlns="http://www.w3.org/2000/svg">
<path d="M18.4742 7.04992C18.9082 7.61752 18.9082 8.38378 18.4742 8.95047C17.1074 10.7347 13.8282 14.4086 9.9996 14.4086C6.17104 14.4086 2.89177 10.7347 1.52495 8.95047C1.31383 8.67869 1.19922 8.34434 1.19922 8.00019C1.19922 7.65604 1.31383 7.3217 1.52495 7.04992C2.89177 5.26564 6.17104 1.5918 9.9996 1.5918C13.8282 1.5918 17.1074 5.26564 18.4742 7.04992V7.04992Z" stroke="#4FB61E" stroke-width="2" stroke-linecap="round" stroke-linejoin="round"/>
<path d="M9.99939 10.7468C11.5162 10.7468 12.7458 9.51719 12.7458 8.00036C12.7458 6.48354 11.5162 5.25391 9.99939 5.25391C8.48256 5.25391 7.25293 6.48354 7.25293 8.00036C7.25293 9.51719 8.48256 10.7468 9.99939 10.7468Z" stroke="#4FB61E" stroke-width="2" stroke-linecap="round" stroke-linejoin="round"/>
</svg>
