<svg width="30" height="31" viewBox="0 0 30 31" fill="none" xmlns="http://www.w3.org/2000/svg">
<mask id="path-2-inside-1_1295_392" fill="white">
<path fill-rule="evenodd" clip-rule="evenodd" d="M5.82958 16.7706C4.69995 15.5902 4 13.9513 4 12.1395C4 8.54328 6.75789 5.62793 10.1599 5.62793C12.1231 5.62793 13.8718 6.59873 14.9998 8.11097C16.1278 6.59873 17.8764 5.62793 19.8396 5.62793C23.2416 5.62793 25.9995 8.54328 25.9995 12.1395C25.9995 13.9505 25.3002 15.5888 24.1714 16.7691L24.2395 16.7908L15.4396 25.6279L5.75977 16.7908L5.82958 16.7706Z"/>
</mask>
<path fill-rule="evenodd" clip-rule="evenodd" d="M5.82958 16.7706C4.69995 15.5902 4 13.9513 4 12.1395C4 8.54328 6.75789 5.62793 10.1599 5.62793C12.1231 5.62793 13.8718 6.59873 14.9998 8.11097C16.1278 6.59873 17.8764 5.62793 19.8396 5.62793C23.2416 5.62793 25.9995 8.54328 25.9995 12.1395C25.9995 13.9505 25.3002 15.5888 24.1714 16.7691L24.2395 16.7908L15.4396 25.6279L5.75977 16.7908L5.82958 16.7706Z" fill="black"/>
<path d="M5.82958 16.7706L6.3836 18.6924L9.56043 17.7765L7.27453 15.3878L5.82958 16.7706ZM14.9998 8.11097L13.3966 9.30677L14.9998 11.456L16.6029 9.30677L14.9998 8.11097ZM24.1714 16.7691L22.726 15.3868L20.5083 17.7057L23.5668 18.6756L24.1714 16.7691ZM24.2395 16.7908L25.6567 18.202L27.9725 15.8764L24.8441 14.8843L24.2395 16.7908ZM15.4396 25.6279L14.0912 27.105L15.5055 28.3962L16.8568 27.0392L15.4396 25.6279ZM5.75977 16.7908L5.20574 14.869L1.77257 15.8588L4.41131 18.2678L5.75977 16.7908ZM7.27453 15.3878C6.49763 14.576 6 13.431 6 12.1395H2C2 14.4715 2.90227 16.6044 4.38463 18.1534L7.27453 15.3878ZM6 12.1395C6 9.54177 7.96564 7.62793 10.1599 7.62793V3.62793C5.55014 3.62793 2 7.54479 2 12.1395H6ZM10.1599 7.62793C11.4393 7.62793 12.6137 8.2571 13.3966 9.30677L16.6029 6.91516C15.1299 4.94036 12.8068 3.62793 10.1599 3.62793V7.62793ZM16.6029 9.30677C17.3859 8.2571 18.5602 7.62793 19.8396 7.62793V3.62793C17.1927 3.62793 14.8697 4.94036 13.3966 6.91516L16.6029 9.30677ZM19.8396 7.62793C22.0339 7.62793 23.9995 9.54177 23.9995 12.1395H27.9995C27.9995 7.54479 24.4494 3.62793 19.8396 3.62793V7.62793ZM23.9995 12.1395C23.9995 13.4305 23.5023 14.575 22.726 15.3868L25.6168 18.1515C27.098 16.6026 27.9995 14.4705 27.9995 12.1395H23.9995ZM23.5668 18.6756L23.6349 18.6972L24.8441 14.8843L24.7759 14.8627L23.5668 18.6756ZM22.8223 15.3795L14.0224 24.2167L16.8568 27.0392L25.6567 18.202L22.8223 15.3795ZM16.7881 24.1509L7.10822 15.3137L4.41131 18.2678L14.0912 27.105L16.7881 24.1509ZM6.31379 18.7125L6.3836 18.6924L5.27556 14.8489L5.20574 14.869L6.31379 18.7125Z" fill="black" mask="url(#path-2-inside-1_1295_392)"/>
</svg>
