<svg width="22" height="21" viewBox="0 0 22 21" fill="none" xmlns="http://www.w3.org/2000/svg">
<mask id="path-1-inside-1_1138_566" fill="white">
<path fill-rule="evenodd" clip-rule="evenodd" d="M1.82958 11.7706C0.699948 10.5902 0 8.95128 0 7.13954C0 3.54328 2.75789 0.62793 6.15992 0.62793C8.12309 0.62793 9.87176 1.59873 10.9998 3.11097C12.1278 1.59873 13.8764 0.62793 15.8396 0.62793C19.2416 0.62793 21.9995 3.54328 21.9995 7.13954C21.9995 8.95052 21.3002 10.5888 20.1714 11.7691L20.2395 11.7908L11.4396 20.6279L1.75977 11.7908L1.82958 11.7706Z"/>
</mask>
<path fill-rule="evenodd" clip-rule="evenodd" d="M1.82958 11.7706C0.699948 10.5902 0 8.95128 0 7.13954C0 3.54328 2.75789 0.62793 6.15992 0.62793C8.12309 0.62793 9.87176 1.59873 10.9998 3.11097C12.1278 1.59873 13.8764 0.62793 15.8396 0.62793C19.2416 0.62793 21.9995 3.54328 21.9995 7.13954C21.9995 8.95052 21.3002 10.5888 20.1714 11.7691L20.2395 11.7908L11.4396 20.6279L1.75977 11.7908L1.82958 11.7706Z" fill="black"/>
<path d="M1.82958 11.7706L2.3836 13.6924L5.56043 12.7765L3.27453 10.3878L1.82958 11.7706ZM10.9998 3.11097L9.39662 4.30677L10.9998 6.45599L12.6029 4.30677L10.9998 3.11097ZM20.1714 11.7691L18.726 10.3868L16.5083 12.7057L19.5668 13.6756L20.1714 11.7691ZM20.2395 11.7908L21.6567 13.202L23.9725 10.8764L20.8441 9.88432L20.2395 11.7908ZM11.4396 20.6279L10.0912 22.105L11.5055 23.3962L12.8568 22.0392L11.4396 20.6279ZM1.75977 11.7908L1.20574 9.86902L-2.22743 10.8588L0.411306 13.2678L1.75977 11.7908ZM3.27453 10.3878C2.49763 9.576 2 8.43104 2 7.13954H-2C-2 9.47153 -1.09773 11.6044 0.384627 13.1534L3.27453 10.3878ZM2 7.13954C2 4.54177 3.96564 2.62793 6.15992 2.62793V-1.37207C1.55014 -1.37207 -2 2.54479 -2 7.13954H2ZM6.15992 2.62793C7.43934 2.62793 8.61365 3.2571 9.39662 4.30677L12.6029 1.91516C11.1299 -0.0596374 8.80683 -1.37207 6.15992 -1.37207V2.62793ZM12.6029 4.30677C13.3859 3.2571 14.5602 2.62793 15.8396 2.62793V-1.37207C13.1927 -1.37207 10.8697 -0.0596374 9.39662 1.91516L12.6029 4.30677ZM15.8396 2.62793C18.0339 2.62793 19.9995 4.54177 19.9995 7.13954H23.9995C23.9995 2.54479 20.4494 -1.37207 15.8396 -1.37207V2.62793ZM19.9995 7.13954C19.9995 8.4305 19.5023 9.57504 18.726 10.3868L21.6168 13.1515C23.098 11.6026 23.9995 9.47055 23.9995 7.13954H19.9995ZM19.5668 13.6756L19.6349 13.6972L20.8441 9.88432L20.7759 9.8627L19.5668 13.6756ZM18.8223 10.3795L10.0224 19.2167L12.8568 22.0392L21.6567 13.202L18.8223 10.3795ZM12.7881 19.1509L3.10822 10.3137L0.411306 13.2678L10.0912 22.105L12.7881 19.1509ZM2.31379 13.7125L2.3836 13.6924L1.27556 9.84889L1.20574 9.86902L2.31379 13.7125Z" fill="black" mask="url(#path-1-inside-1_1138_566)"/>
</svg>
