<svg width="30" height="30" viewBox="0 0 30 30" fill="none" xmlns="http://www.w3.org/2000/svg">
<mask id="path-2-inside-1_1295_1444" fill="white">
<path fill-rule="evenodd" clip-rule="evenodd" d="M5.82958 16.1427C4.69995 14.9623 4 13.3234 4 11.5116C4 7.91535 6.75789 5 10.1599 5C12.1232 5 13.8719 5.97089 14.9999 7.48325C16.1279 5.97089 17.8767 5 19.8399 5C23.242 5 25.9998 7.91535 25.9998 11.5116C25.9998 13.3226 25.3005 14.961 24.1716 16.1413L24.2395 16.1628L15.4396 25L5.75977 16.1628L5.82958 16.1427Z"/>
</mask>
<path d="M5.82958 16.1427L6.3836 18.0644L9.56043 17.1486L7.27453 14.7599L5.82958 16.1427ZM14.9999 7.48325L13.3967 8.67899L14.9999 10.8285L16.6031 8.67899L14.9999 7.48325ZM24.1716 16.1413L22.7262 14.7589L20.5085 17.0778L23.567 18.0477L24.1716 16.1413ZM24.2395 16.1628L25.6567 17.574L27.9725 15.2485L24.8441 14.2564L24.2395 16.1628ZM15.4396 25L14.0912 26.4771L15.5055 27.7683L16.8568 26.4112L15.4396 25ZM5.75977 16.1628L5.20574 14.2411L1.77257 15.2308L4.41131 17.6399L5.75977 16.1628ZM7.27453 14.7599C6.49763 13.9481 6 12.8031 6 11.5116H2C2 13.8436 2.90227 15.9765 4.38463 17.5255L7.27453 14.7599ZM6 11.5116C6 8.91384 7.96564 7 10.1599 7V3C5.55014 3 2 6.91686 2 11.5116H6ZM10.1599 7C11.4394 7 12.6138 7.62923 13.3967 8.67899L16.6031 6.28751C15.1301 4.31256 12.807 3 10.1599 3V7ZM16.6031 8.67899C17.3861 7.62923 18.5604 7 19.8399 7V3C17.1929 3 14.8698 4.31256 13.3967 6.28751L16.6031 8.67899ZM19.8399 7C22.0342 7 23.9998 8.91384 23.9998 11.5116H27.9998C27.9998 6.91686 24.4497 3 19.8399 3V7ZM23.9998 11.5116C23.9998 12.8026 23.5026 13.9472 22.7262 14.7589L25.617 17.5236C27.0983 15.9748 27.9998 13.8427 27.9998 11.5116H23.9998ZM23.567 18.0477L23.6349 18.0693L24.8441 14.2564L24.7762 14.2349L23.567 18.0477ZM22.8223 14.7516L14.0224 23.5888L16.8568 26.4112L25.6567 17.574L22.8223 14.7516ZM16.7881 23.523L7.10822 14.6858L4.41131 17.6399L14.0912 26.4771L16.7881 23.523ZM6.31379 18.0846L6.3836 18.0644L5.27556 14.221L5.20574 14.2411L6.31379 18.0846Z" fill="black" mask="url(#path-2-inside-1_1295_1444)"/>
</svg>
