<svg width="30" height="30" viewBox="0 0 30 30" fill="none" xmlns="http://www.w3.org/2000/svg">
<rect width="30" height="30" rx="4" fill="#B8D7A9"/>
<path d="M10.5 11C10.5 10.4477 10.9477 10 11.5 10H18.5C19.0523 10 19.5 10.4477 19.5 11C19.5 11.5523 19.0523 12 18.5 12H11.5C10.9477 12 10.5 11.5523 10.5 11Z" fill="black"/>
<path d="M10.5 15C10.5 14.4477 10.9477 14 11.5 14H18.5C19.0523 14 19.5 14.4477 19.5 15C19.5 15.5523 19.0523 16 18.5 16H11.5C10.9477 16 10.5 15.5523 10.5 15Z" fill="black"/>
<path d="M10.5 15C10.5 14.4477 10.9477 14 11.5 14H18.5C19.0523 14 19.5 14.4477 19.5 15C19.5 15.5523 19.0523 16 18.5 16H11.5C10.9477 16 10.5 15.5523 10.5 15Z" fill="black"/>
<path d="M10.5 15C10.5 14.4477 10.9477 14 11.5 14H18.5C19.0523 14 19.5 14.4477 19.5 15C19.5 15.5523 19.0523 16 18.5 16H11.5C10.9477 16 10.5 15.5523 10.5 15Z" fill="black"/>
<path d="M10.5 19C10.5 18.4477 10.9477 18 11.5 18H18.5C19.0523 18 19.5 18.4477 19.5 19C19.5 19.5523 19.0523 20 18.5 20H11.5C10.9477 20 10.5 19.5523 10.5 19Z" fill="black"/>
<path d="M10.5 15C10.5 14.4477 10.9477 14 11.5 14H18.5C19.0523 14 19.5 14.4477 19.5 15C19.5 15.5523 19.0523 16 18.5 16H11.5C10.9477 16 10.5 15.5523 10.5 15Z" fill="black"/>
<rect x="7" y="6" width="16" height="18" rx="1" stroke="black" stroke-width="2"/>
</svg>
