<svg width="30" height="30" viewBox="0 0 30 30" fill="none" xmlns="http://www.w3.org/2000/svg">
<rect width="30" height="30" rx="4" fill="#B8D7A9"/>
<path d="M13.6245 6.3031L5.62451 13.882C5.22583 14.2597 5 14.7848 5 15.3339V23C5 24.1046 5.89543 25 7 25H9.11111C10.2157 25 11.1111 24.1046 11.1111 23V18.5789C11.1111 17.4744 12.0065 16.5789 13.1111 16.5789H16.8889C17.9935 16.5789 18.8889 17.4744 18.8889 18.5789V23C18.8889 24.1046 19.7843 25 20.8889 25H23C24.1046 25 25 24.1046 25 23V15.3339C25 14.7848 24.7742 14.2597 24.3755 13.882L16.3755 6.3031C15.6041 5.5723 14.3959 5.5723 13.6245 6.3031Z" stroke="black" stroke-width="2"/>
</svg>
