<svg width="30" height="31" viewBox="0 0 30 31" fill="none" xmlns="http://www.w3.org/2000/svg">
<rect y="0.332153" width="30" height="30" rx="4" fill="#B8D7A9"/>
<path d="M13.6245 6.63525L5.62451 14.2142C5.22583 14.5919 5 15.1169 5 15.6661V23.3322C5 24.4367 5.89543 25.3322 7 25.3322H9.11111C10.2157 25.3322 11.1111 24.4367 11.1111 23.3322V18.9111C11.1111 17.8065 12.0065 16.9111 13.1111 16.9111H16.8889C17.9935 16.9111 18.8889 17.8065 18.8889 18.9111V23.3322C18.8889 24.4367 19.7843 25.3322 20.8889 25.3322H23C24.1046 25.3322 25 24.4367 25 23.3322V15.6661C25 15.1169 24.7742 14.5919 24.3755 14.2142L16.3755 6.63525C15.6041 5.90446 14.3959 5.90446 13.6245 6.63525Z" stroke="black" stroke-width="2"/>
</svg>
