<svg width="26" height="26" viewBox="0 0 26 26" fill="none" xmlns="http://www.w3.org/2000/svg">
<path fill-rule="evenodd" clip-rule="evenodd" d="M13.4988 18.4367C13.4988 17.9959 13.8106 17.6387 14.1952 17.6387L19.3024 17.6387C19.687 17.6387 19.9988 17.9959 19.9988 18.4367C19.9988 18.8774 19.687 19.2346 19.3024 19.2346L14.1952 19.2346C13.8106 19.2346 13.4988 18.8774 13.4988 18.4367Z" fill="#4FB61E"/>
<path fill-rule="evenodd" clip-rule="evenodd" d="M10.2485 13.1183C10.2485 12.6776 10.5603 12.3203 10.945 12.3203L19.3021 12.3203C19.6867 12.3203 19.9985 12.6776 19.9985 13.1183C19.9985 13.559 19.6867 13.9163 19.3021 13.9163L10.945 13.9163C10.5603 13.9163 10.2485 13.559 10.2485 13.1183Z" fill="#4FB61E"/>
<path fill-rule="evenodd" clip-rule="evenodd" d="M7 7.79798C7 7.35727 7.3118 7 7.69643 7L19.3036 7C19.6882 7 20 7.35727 20 7.79798C20 8.23869 19.6882 8.59596 19.3036 8.59596L7.69643 8.59596C7.3118 8.59596 7 8.23869 7 7.79798Z" fill="#4FB61E"/>
<rect x="1" y="1" width="24" height="24" rx="7" stroke="#4FB61E" stroke-width="2"/>
</svg>
