<svg width="20" height="17" viewBox="0 0 20 17" fill="none" xmlns="http://www.w3.org/2000/svg">
<path d="M18.0064 0.799805C18.5488 0.799805 18.9579 1.27556 18.7391 2.16046L16.0844 14.6727C15.8989 15.5624 15.3612 15.7765 14.6191 15.3626L8.28681 10.6859C8.26226 10.6683 8.24225 10.6451 8.22845 10.6182C8.21465 10.5913 8.20745 10.5615 8.20745 10.5313C8.20745 10.5011 8.21465 10.4713 8.22845 10.4444C8.24225 10.4175 8.26226 10.3943 8.28681 10.3767L15.5991 3.77326C15.9322 3.47829 15.5278 3.33557 15.0901 3.60199L5.91281 9.39189C5.88497 9.41005 5.85337 9.42162 5.8204 9.42574C5.78743 9.42986 5.75395 9.42642 5.72251 9.41568L1.82609 8.18348C0.960224 7.93133 0.960223 7.33664 2.02115 6.91322L17.6116 0.899713C17.7352 0.840396 17.8695 0.806427 18.0064 0.799805Z" stroke="white" stroke-width="1.5" stroke-linecap="round" stroke-linejoin="round"/>
</svg>
