<svg width="18" height="18" viewBox="0 0 18 18" fill="none" xmlns="http://www.w3.org/2000/svg">
<path d="M13.6583 5.41005C14.229 5.41005 14.6917 4.9475 14.6917 4.3769C14.6917 3.80631 14.229 3.34375 13.6583 3.34375C13.0876 3.34375 12.625 3.80631 12.625 4.3769C12.625 4.9475 13.0876 5.41005 13.6583 5.41005Z" fill="white"/>
<path d="M9.07174 4.66699C6.68048 4.66699 4.73633 6.61077 4.73633 9.00159C4.73633 11.3924 6.68048 13.3362 9.07174 13.3362C11.463 13.3362 13.4072 11.3924 13.4072 9.00159C13.4072 6.61077 11.463 4.66699 9.07174 4.66699ZM9.07174 11.7765C7.5416 11.7765 6.29628 10.5314 6.29628 9.00159C6.29628 7.47173 7.5416 6.22665 9.07174 6.22665C10.6019 6.22665 11.8472 7.47173 11.8472 9.00159C11.8505 10.5314 10.6052 11.7765 9.07174 11.7765Z" fill="white"/>
<path d="M12.5133 17.8002H5.48518C2.57061 17.8002 0.199219 15.4292 0.199219 12.5119V5.48516C0.199219 2.57115 2.57061 0.200195 5.48518 0.200195H12.5133C15.4278 0.200195 17.7992 2.57115 17.7992 5.48516V12.5119C17.8025 15.4292 15.4311 17.8002 12.5133 17.8002ZM5.48518 1.85589C3.48473 1.85589 1.85522 3.48509 1.85522 5.48516V12.5119C1.85522 14.5153 3.48473 16.1412 5.48518 16.1412H12.5133C14.517 16.1412 16.1432 14.512 16.1432 12.5119V5.48516C16.1465 3.48509 14.517 1.85589 12.5133 1.85589H5.48518Z" fill="white"/>
</svg>
