<svg width="18" height="18" viewBox="0 0 18 18" fill="none" xmlns="http://www.w3.org/2000/svg">
<path d="M6.7976 5.96325L6.79755 5.96322L6.7917 5.97216L5.3287 8.21073L5.01667 8.68818L5.26878 9.1998C6.02951 10.7437 7.283 11.99 8.83117 12.742L9.34573 12.9919L9.82199 12.675L12.0341 11.2032L12.0341 11.2032L12.0391 11.1998C12.092 11.1642 12.153 11.1426 12.2165 11.1372C12.28 11.1317 12.3438 11.1425 12.402 11.1686L12.4103 11.1723L12.4187 11.1759L16.5439 12.9351C16.6267 12.9729 16.6957 13.0356 16.7411 13.1146L17.6081 12.6163L16.7411 13.1146C16.7861 13.1929 16.8057 13.2831 16.7973 13.3728C16.6705 14.3179 16.2063 15.1856 15.49 15.8155C14.7709 16.448 13.8466 16.7979 12.889 16.8002C6.44451 16.7995 1.19983 11.5547 1.19922 5.11025C1.20159 4.15265 1.55148 3.22846 2.18391 2.50938C2.81387 1.79311 3.68149 1.32888 4.62663 1.20209C4.71636 1.19371 4.80655 1.2133 4.88478 1.25828C4.96396 1.30379 5.02684 1.37298 5.06462 1.45606L6.83294 5.58213C6.83297 5.58221 6.833 5.58228 6.83303 5.58235C6.85927 5.64374 6.86979 5.7107 6.86363 5.77717C6.85746 5.84373 6.83476 5.90769 6.7976 5.96325Z" stroke="white" stroke-width="2"/>
</svg>
