<svg width="26" height="26" viewBox="0 0 26 26" fill="none" xmlns="http://www.w3.org/2000/svg">
<path d="M18.0669 6.27586C18.0669 9.22187 15.7668 11.5517 13.0003 11.5517C10.2337 11.5517 7.93359 9.22187 7.93359 6.27586C7.93359 3.32986 10.2337 1 13.0003 1C15.7668 1 18.0669 3.32986 18.0669 6.27586Z" stroke="white" stroke-width="2" stroke-linejoin="round"/>
<path d="M24.8038 24.2364C24.8463 24.4251 24.796 24.59 24.6644 24.7314C24.5223 24.8841 24.2851 25.0008 24.0028 25.0008H23.9893H23.9758H23.9622H23.9485H23.9349H23.9212H23.9074H23.8936H23.8798H23.8659H23.852H23.838H23.8241H23.81H23.796H23.7819H23.7677H23.7535H23.7393H23.725H23.7107H23.6964H23.682H23.6676H23.6531H23.6386H23.6241H23.6095H23.5949H23.5802H23.5655H23.5508H23.536H23.5212H23.5063H23.4914H23.4765H23.4615H23.4465H23.4315H23.4164H23.4013H23.3861H23.3709H23.3557H23.3404H23.3251H23.3098H23.2944H23.279H23.2635H23.248H23.2325H23.2169H23.2013H23.1856H23.17H23.1542H23.1385H23.1227H23.1068H23.091H23.0751H23.0591H23.0431H23.0271H23.0111H22.995H22.9788H22.9627H22.9465H22.9302H22.9139H22.8976H22.8813H22.8649H22.8485H22.832H22.8155H22.799H22.7824H22.7658H22.7492H22.7325H22.7158H22.699H22.6822H22.6654H22.6486H22.6317H22.6148H22.5978H22.5808H22.5638H22.5467H22.5296H22.5125H22.4953H22.4781H22.4608H22.4436H22.4262H22.4089H22.3915H22.3741H22.3566H22.3392H22.3216H22.3041H22.2865H22.2689H22.2512H22.2335H22.2158H22.198H22.1802H22.1624H22.1445H22.1266H22.1087H22.0907H22.0727H22.0547H22.0366H22.0185H22.0004H21.9822H21.964H21.9457H21.9275H21.9092H21.8908H21.8725H21.8541H21.8356H21.8171H21.7986H21.7801H21.7615H21.7429H21.7243H21.7056H21.6869H21.6682H21.6494H21.6306H21.6118H21.5929H21.574H21.5551H21.5361H21.5171H21.4981H21.4791H21.46H21.4408H21.4217H21.4025H21.3833H21.364H21.3447H21.3254H21.3061H21.2867H21.2673H21.2479H21.2284H21.2089H21.1893H21.1698H21.1502H21.1305H21.1109H21.0912H21.0715H21.0517H21.0319H21.0121H20.9923H20.9724H20.9525H20.9325H20.9126H20.8926H20.8725H20.8525H20.8324H20.8123H20.7921H20.7719H20.7517H20.7315H20.7112H20.6909H20.6706H20.6502H20.6298H20.6094H20.5889H20.5685H20.5479H20.5274H20.5068H20.4862H20.4656H20.4449H20.4242H20.4035H20.3828H20.362H20.3412H20.3204H20.2995H20.2786H20.2577H20.2367H20.2158H20.1947H20.1737H20.1526H20.1315H20.1104H20.0893H20.0681H20.0469H20.0257H20.0044H19.9831H19.9618H19.9404H19.919H19.8976H19.8762H19.8547H19.8333H19.8117H19.7902H19.7686H19.747H19.7254H19.7037H19.6821H19.6603H19.6386H19.6168H19.595H19.5732H19.5514H19.5295H19.5076H19.4857H19.4637H19.4417H19.4197H19.3977H19.3756H19.3535H19.3314H19.3093H19.2871H19.2649H19.2427H19.2205H19.1982H19.1759H19.1536H19.1312H19.1088H19.0864H19.064H19.0415H19.0191H18.9965H18.974H18.9515H18.9289H18.9063H18.8836H18.861H18.8383H18.8156H18.7928H18.7701H18.7473H18.7245H18.7016H18.6788H18.6559H18.6329H18.61H18.587H18.5641H18.541H18.518H18.4949H18.4719H18.4487H18.4256H18.4024H18.3793H18.3561H18.3328H18.3096H18.2863H18.263H18.2396H18.2163H18.1929H18.1695H18.1461H18.1226H18.0992H18.0757H18.0521H18.0286H18.005H17.9814H17.9578H17.9342H17.9105H17.8868H17.8631H17.8394H17.8156H17.7919H17.7681H17.7442H17.7204H17.6965H17.6726H17.6487H17.6248H17.6008H17.5768H17.5528H17.5288H17.5048H17.4807H17.4566H17.4325H17.4083H17.3842H17.36H17.3358H17.3116H17.2873H17.2631H17.2388H17.2144H17.1901H17.1658H17.1414H17.117H17.0926H17.0681H17.0436H17.0192H16.9946H16.9701H16.9456H16.921H16.8964H16.8718H16.8472H16.8225H16.7978H16.7731H16.7484H16.7237H16.6989H16.6741H16.6493H16.6245H16.5997H16.5748H16.5499H16.525H16.5001H16.4752H16.4502H16.4252H16.4002H16.3752H16.3502H16.3251H16.3H16.2749H16.2498H16.2247H16.1995H16.1743H16.1491H16.1239H16.0987H16.0734H16.0481H16.0229H15.9975H15.9722H15.9469H15.9215H15.8961H15.8707H15.8453H15.8198H15.7943H15.7689H15.7434H15.7178H15.6923H15.6667H15.6412H15.6156H15.59H15.5643H15.5387H15.513H15.4873H15.4616H15.4359H15.4102H15.3844H15.3586H15.3328H15.307H15.2812H15.2554H15.2295H15.2036H15.1777H15.1518H15.1259H15.0999H15.074H15.048H15.022H14.996H14.9699H14.9439H14.9178H14.8917H14.8656H14.8395H14.8134H14.7872H14.761H14.7349H14.7087H14.6824H14.6562H14.6299H14.6037H14.5774H14.5511H14.5248H14.4985H14.4721H14.4457H14.4194H14.393H14.3666H14.3401H14.3137H14.2872H14.2608H14.2343H14.2078H14.1812H14.1547H14.1282H14.1016H14.075H14.0484H14.0218H13.9952H13.9685H13.9419H13.9152H13.8885H13.8618H13.8351H13.8084H13.7817H13.7549H13.7281H13.7013H13.6745H13.6477H13.6209H13.594H13.5672H13.5403H13.5134H13.4865H13.4596H13.4327H13.4057H13.3788H13.3518H13.3248H13.2978H13.2708H13.2438H13.2168H13.1897H13.1627H13.1356H13.1085H13.0814H13.0543H13.0271H13H12.9729H12.9457H12.9186H12.8915H12.8644H12.8373H12.8103H12.7832H12.7562H12.7292H12.7022H12.6752H12.6482H12.6212H12.5943H12.5673H12.5404H12.5135H12.4866H12.4597H12.4328H12.406H12.3791H12.3523H12.3255H12.2987H12.2719H12.2451H12.2183H12.1916H12.1649H12.1382H12.1115H12.0848H12.0581H12.0315H12.0048H11.9782H11.9516H11.925H11.8984H11.8718H11.8453H11.8188H11.7922H11.7657H11.7392H11.7128H11.6863H11.6599H11.6334H11.607H11.5806H11.5543H11.5279H11.5015H11.4752H11.4489H11.4226H11.3963H11.3701H11.3438H11.3176H11.2913H11.2651H11.239H11.2128H11.1866H11.1605H11.1344H11.1083H11.0822H11.0561H11.0301H11.004H10.978H10.952H10.926H10.9001H10.8741H10.8482H10.8223H10.7964H10.7705H10.7446H10.7188H10.693H10.6672H10.6414H10.6156H10.5898H10.5641H10.5384H10.5127H10.487H10.4613H10.4357H10.41H10.3844H10.3588H10.3333H10.3077H10.2822H10.2566H10.2311H10.2057H10.1802H10.1547H10.1293H10.1039H10.0785H10.0531H10.0278H10.0025H9.97715H9.95185H9.92657H9.90132H9.87608H9.85086H9.82567H9.80049H9.77533H9.75019H9.72507H9.69997H9.67489H9.64982H9.62478H9.59976H9.57476H9.54978H9.52482H9.49988H9.47495H9.45005H9.42517H9.40031H9.37547H9.35065H9.32585H9.30107H9.27632H9.25158H9.22686H9.20217H9.17749H9.15284H9.1282H9.10359H9.079H9.05443H9.02988H9.00535H8.98084H8.95636H8.93189H8.90745H8.88303H8.85863H8.83425H8.80989H8.78555H8.76124H8.73695H8.71268H8.68843H8.6642H8.64H8.61582H8.59166H8.56752H8.5434H8.51931H8.49524H8.47119H8.44716H8.42315H8.39917H8.37521H8.35128H8.32736H8.30347H8.2796H8.25576H8.23193H8.20813H8.18436H8.1606H8.13687H8.11316H8.08948H8.06582H8.04218H8.01857H7.99497H7.97141H7.94786H7.92434H7.90084H7.87737H7.85392H7.83049H7.80709H7.78371H7.76036H7.73703H7.71372H7.69044H7.66718H7.64395H7.62074H7.59756H7.57439H7.55126H7.52815H7.50506H7.482H7.45896H7.43594H7.41296H7.38999H7.36705H7.34414H7.32125H7.29839H7.27555H7.25273H7.22994H7.20718H7.18444H7.16173H7.13904H7.11638H7.09374H7.07113H7.04855H7.02599H7.00345H6.98095H6.95846H6.93601H6.91358H6.89117H6.86879H6.84644H6.82411H6.80181H6.77954H6.75729H6.73507H6.71288H6.69071H6.66857H6.64645H6.62436H6.6023H6.58027H6.55826H6.53628H6.51432H6.49239H6.47049H6.44862H6.42677H6.40495H6.38316H6.3614H6.33966H6.31795H6.29626H6.27461H6.25298H6.23138H6.20981H6.18826H6.16675H6.14526H6.1238H6.10236H6.08096H6.05958H6.03823H6.01691H5.99562H5.97435H5.95311H5.93191H5.91073H5.88957H5.86845H5.84736H5.82629H5.80525H5.78425H5.76327H5.74231H5.72139H5.7005H5.67964H5.6588H5.638H5.61722H5.59647H5.57575H5.55506H5.5344H5.51377H5.49317H5.4726H5.45206H5.43155H5.41107H5.39061H5.37019H5.3498H5.32943H5.3091H5.2888H5.26852H5.24828H5.22807H5.20789H5.18773H5.16761H5.14752H5.12746H5.10743H5.08743H5.06746H5.04752H5.02761H5.00773H4.98789H4.96807H4.94829H4.92853H4.90881H4.88912H4.86946H4.84983H4.83023H4.81066H4.79113H4.77162H4.75215H4.73271H4.7133H4.69392H4.67457H4.65526H4.63598H4.61672H4.59751H4.57832H4.55916H4.54004H4.52095H4.50189H4.48286H4.46387H4.44491H4.42598H4.40708H4.38821H4.36938H4.35058H4.33181H4.31308H4.29438H4.27571H4.25707H4.23847H4.2199H4.20136H4.18286H4.16438H4.14595H4.12754H4.10917H4.09083H4.07253H4.05425H4.03602H4.01781H3.99964H3.9815H3.9634H3.94533H3.92729H3.90929H3.89132H3.87339H3.85549H3.83762H3.81979H3.80199H3.78423H3.7665H3.74881H3.73115H3.71352H3.69593H3.67837H3.66085H3.64336H3.62591H3.60849H3.59111H3.57376H3.55644H3.53917H3.52192H3.50471H3.48754H3.4704H3.4533H3.43623H3.4192H3.4022H3.38524H3.36831H3.35142H3.33457H3.31775H3.30097H3.28422H3.26751H3.25083H3.23419H3.21759H3.20102H3.18449H3.168H3.15154H3.13511H3.11873H3.10238H3.08606H3.06979H3.05354H3.03734H3.02117H3.00504H2.98895H2.97289H2.95687H2.94089H2.92494H2.90903H2.89316H2.87732H2.86153H2.84577H2.83004H2.81436H2.79871H2.7831H2.76752H2.75199H2.73649H2.72103H2.7056H2.69022H2.67487H2.65956H2.64429H2.62905H2.61386H2.5987H2.58358H2.5685H2.55346H2.53845H2.52349H2.50856H2.49367H2.47882H2.46401H2.44923H2.4345H2.4198H2.40514H2.39052H2.37594H2.3614H2.3469H2.33244H2.31802H2.30363H2.28929H2.27498H2.26071H2.24649H2.2323H2.21815H2.20404H2.18997H2.17594H2.16195H2.148H2.13409H2.12022H2.10639H2.0926H2.07885H2.06514H2.05147H2.03784H2.02425H2.0107H1.99719C1.71494 25.0008 1.47772 24.8841 1.33558 24.7314C1.204 24.59 1.15368 24.4251 1.19619 24.2364C2.19427 19.8061 6.98705 16.2422 13 16.2422C19.0129 16.2422 23.8057 19.8061 24.8038 24.2364Z" stroke="white" stroke-width="2" stroke-linejoin="round"/>
</svg>
