<svg width="20" height="20" viewBox="0 0 20 20" fill="none" xmlns="http://www.w3.org/2000/svg">
<path d="M13.6673 4.82759C13.6673 6.97373 11.994 8.65517 10.0007 8.65517C8.00729 8.65517 6.33398 6.97373 6.33398 4.82759C6.33398 2.68144 8.00729 1 10.0007 1C11.994 1 13.6673 2.68144 13.6673 4.82759Z" stroke="black" stroke-width="2" stroke-linejoin="round"/>
<path d="M18.7551 18.311C18.8027 18.472 18.7677 18.6085 18.6504 18.7369C18.5183 18.8817 18.2836 19.0005 18.0004 19.0005H17.9897H17.979H17.9682H17.9574H17.9466H17.9358H17.9249H17.9141H17.9032H17.8923H17.8813H17.8703H17.8593H17.8483H17.8373H17.8262H17.8151H17.804H17.7928H17.7817H17.7705H17.7593H17.748H17.7368H17.7255H17.7142H17.7028H17.6915H17.6801H17.6687H17.6573H17.6458H17.6343H17.6228H17.6113H17.5998H17.5882H17.5766H17.565H17.5533H17.5417H17.53H17.5183H17.5065H17.4948H17.483H17.4712H17.4594H17.4475H17.4356H17.4237H17.4118H17.3999H17.3879H17.3759H17.3639H17.3519H17.3398H17.3277H17.3156H17.3035H17.2914H17.2792H17.267H17.2548H17.2425H17.2303H17.218H17.2057H17.1933H17.181H17.1686H17.1562H17.1438H17.1313H17.1189H17.1064H17.0939H17.0813H17.0688H17.0562H17.0436H17.031H17.0184H17.0057H16.993H16.9803H16.9676H16.9548H16.942H16.9292H16.9164H16.9036H16.8907H16.8778H16.8649H16.852H16.839H16.8261H16.8131H16.8001H16.787H16.774H16.7609H16.7478H16.7347H16.7215H16.7084H16.6952H16.682H16.6688H16.6555H16.6422H16.629H16.6156H16.6023H16.589H16.5756H16.5622H16.5488H16.5353H16.5219H16.5084H16.4949H16.4814H16.4678H16.4543H16.4407H16.4271H16.4135H16.3998H16.3861H16.3725H16.3588H16.345H16.3313H16.3175H16.3037H16.2899H16.2761H16.2622H16.2484H16.2345H16.2206H16.2066H16.1927H16.1787H16.1647H16.1507H16.1367H16.1226H16.1086H16.0945H16.0804H16.0662H16.0521H16.0379H16.0237H16.0095H15.9953H15.9811H15.9668H15.9525H15.9382H15.9239H15.9095H15.8952H15.8808H15.8664H15.852H15.8375H15.8231H15.8086H15.7941H15.7796H15.765H15.7505H15.7359H15.7213H15.7067H15.692H15.6774H15.6627H15.648H15.6333H15.6186H15.6039H15.5891H15.5743H15.5595H15.5447H15.5298H15.515H15.5001H15.4852H15.4703H15.4554H15.4404H15.4254H15.4105H15.3955H15.3804H15.3654H15.3503H15.3352H15.3201H15.305H15.2899H15.2747H15.2596H15.2444H15.2292H15.214H15.1987H15.1835H15.1682H15.1529H15.1376H15.1222H15.1069H15.0915H15.0761H15.0607H15.0453H15.0299H15.0144H14.999H14.9835H14.968H14.9524H14.9369H14.9213H14.9058H14.8902H14.8746H14.8589H14.8433H14.8276H14.812H14.7963H14.7805H14.7648H14.7491H14.7333H14.7175H14.7017H14.6859H14.6701H14.6542H14.6384H14.6225H14.6066H14.5907H14.5747H14.5588H14.5428H14.5268H14.5108H14.4948H14.4788H14.4627H14.4467H14.4306H14.4145H14.3984H14.3823H14.3661H14.3499H14.3338H14.3176H14.3014H14.2851H14.2689H14.2526H14.2364H14.2201H14.2038H14.1874H14.1711H14.1547H14.1384H14.122H14.1056H14.0892H14.0727H14.0563H14.0398H14.0233H14.0068H13.9903H13.9738H13.9573H13.9407H13.9241H13.9076H13.8909H13.8743H13.8577H13.841H13.8244H13.8077H13.791H13.7743H13.7576H13.7408H13.7241H13.7073H13.6905H13.6737H13.6569H13.6401H13.6232H13.6064H13.5895H13.5726H13.5557H13.5388H13.5219H13.5049H13.488H13.471H13.454H13.437H13.42H13.4029H13.3859H13.3688H13.3517H13.3347H13.3176H13.3004H13.2833H13.2662H13.249H13.2318H13.2146H13.1974H13.1802H13.163H13.1457H13.1285H13.1112H13.0939H13.0766H13.0593H13.042H13.0246H13.0073H12.9899H12.9725H12.9551H12.9377H12.9203H12.9028H12.8854H12.8679H12.8505H12.833H12.8155H12.7979H12.7804H12.7629H12.7453H12.7277H12.7102H12.6926H12.675H12.6573H12.6397H12.622H12.6044H12.5867H12.569H12.5513H12.5336H12.5159H12.4982H12.4804H12.4626H12.4449H12.4271H12.4093H12.3915H12.3736H12.3558H12.3379H12.3201H12.3022H12.2843H12.2664H12.2485H12.2306H12.2126H12.1947H12.1767H12.1588H12.1408H12.1228H12.1048H12.0867H12.0687H12.0507H12.0326H12.0145H11.9964H11.9784H11.9603H11.9421H11.924H11.9059H11.8877H11.8695H11.8514H11.8332H11.815H11.7968H11.7786H11.7603H11.7421H11.7238H11.7056H11.6873H11.669H11.6507H11.6324H11.6141H11.5957H11.5774H11.559H11.5407H11.5223H11.5039H11.4855H11.4671H11.4487H11.4302H11.4118H11.3933H11.3749H11.3564H11.3379H11.3194H11.3009H11.2824H11.2638H11.2453H11.2268H11.2082H11.1896H11.171H11.1524H11.1338H11.1152H11.0966H11.078H11.0593H11.0407H11.022H11.0033H10.9847H10.966H10.9473H10.9286H10.9098H10.8911H10.8723H10.8536H10.8348H10.8161H10.7973H10.7785H10.7597H10.7409H10.722H10.7032H10.6844H10.6655H10.6467H10.6278H10.6089H10.59H10.5711H10.5522H10.5333H10.5144H10.4955H10.4765H10.4576H10.4386H10.4196H10.4006H10.3816H10.3626H10.3436H10.3246H10.3056H10.2866H10.2675H10.2485H10.2294H10.2103H10.1913H10.1722H10.1531H10.134H10.1149H10.0957H10.0766H10.0575H10.0383H10.0192H10H9.98084H9.96168H9.94253H9.92339H9.90426H9.88514H9.86603H9.84692H9.82783H9.80874H9.78966H9.77059H9.75153H9.73248H9.71344H9.6944H9.67537H9.65636H9.63735H9.61835H9.59936H9.58038H9.56141H9.54245H9.52349H9.50455H9.48562H9.46669H9.44777H9.42887H9.40997H9.39108H9.3722H9.35333H9.33447H9.31562H9.29678H9.27795H9.25913H9.24032H9.22152H9.20272H9.18394H9.16517H9.1464H9.12765H9.10891H9.09017H9.07145H9.05274H9.03403H9.01534H8.99665H8.97798H8.95932H8.94066H8.92202H8.90339H8.88476H8.86615H8.84755H8.82896H8.81038H8.79181H8.77325H8.7547H8.73616H8.71763H8.69911H8.6806H8.6621H8.64362H8.62514H8.60668H8.58822H8.56978H8.55134H8.53292H8.51451H8.49611H8.47772H8.45934H8.44098H8.42262H8.40428H8.38594H8.36762H8.34931H8.33101H8.31272H8.29444H8.27617H8.25792H8.23967H8.22144H8.20322H8.18501H8.16681H8.14863H8.13045H8.11229H8.09414H8.07599H8.05787H8.03975H8.02164H8.00355H7.98547H7.9674H7.94934H7.9313H7.91326H7.89524H7.87723H7.85923H7.84125H7.82327H7.80531H7.78736H7.76942H7.7515H7.73359H7.71569H7.6978H7.67992H7.66206H7.64421H7.62637H7.60854H7.59073H7.57293H7.55514H7.53736H7.5196H7.50185H7.48411H7.46639H7.44867H7.43097H7.41329H7.39561H7.37795H7.3603H7.34267H7.32505H7.30744H7.28984H7.27226H7.25469H7.23713H7.21959H7.20206H7.18454H7.16704H7.14955H7.13207H7.1146H7.09715H7.07972H7.06229H7.04488H7.02749H7.0101H6.99273H6.97538H6.95804H6.94071H6.92339H6.90609H6.88881H6.87153H6.85427H6.83703H6.8198H6.80258H6.78537H6.76818H6.75101H6.73385H6.7167H6.69957H6.68245H6.66534H6.64825H6.63118H6.61411H6.59706H6.58003H6.56301H6.54601H6.52902H6.51204H6.49508H6.47813H6.4612H6.44428H6.42738H6.41049H6.39362H6.37676H6.35992H6.34309H6.32627H6.30947H6.29269H6.27592H6.25917H6.24243H6.2257H6.20899H6.1923H6.17562H6.15895H6.1423H6.12567H6.10905H6.09245H6.07586H6.05929H6.04273H6.02619H6.00966H5.99315H5.97666H5.96018H5.94371H5.92726H5.91083H5.89441H5.87801H5.86163H5.84526H5.8289H5.81256H5.79624H5.77993H5.76364H5.74737H5.73111H5.71487H5.69864H5.68243H5.66623H5.65006H5.63389H5.61775H5.60162H5.5855H5.56941H5.55333H5.53726H5.52121H5.50518H5.48917H5.47317H5.45719H5.44122H5.42527H5.40934H5.39342H5.37752H5.36164H5.34578H5.32993H5.31409H5.29828H5.28248H5.2667H5.25093H5.23519H5.21946H5.20374H5.18805H5.17237H5.15671H5.14106H5.12543H5.10982H5.09423H5.07865H5.06309H5.04755H5.03203H5.01652H5.00103H4.98556H4.97011H4.95467H4.93925H4.92385H4.90847H4.8931H4.87775H4.86242H4.84711H4.83181H4.81654H4.80128H4.78604H4.77081H4.75561H4.74042H4.72525H4.7101H4.69497H4.67985H4.66475H4.64967H4.63461H4.61957H4.60455H4.58954H4.57455H4.55958H4.54463H4.5297H4.51479H4.49989H4.48502H4.47016H4.45532H4.4405H4.42569H4.41091H4.39615H4.3814H4.36667H4.35196H4.33727H4.3226H4.30795H4.29332H4.27871H4.26411H4.24953H4.23498H4.22044H4.20592H4.19142H4.17694H4.16248H4.14804H4.13362H4.11921H4.10483H4.09047H4.07612H4.0618H4.04749H4.0332H4.01894H4.00469H3.99046H3.97626H3.96207H3.9479H3.93375H3.91962H3.90551H3.89142H3.87735H3.8633H3.84927H3.83526H3.82127H3.8073H3.79336H3.77943H3.76552H3.75163H3.73776H3.72391H3.71008H3.69627H3.68249H3.66872H3.65497H3.64124H3.62754H3.61385H3.60019H3.58654H3.57292H3.55931H3.54573H3.53217H3.51863H3.50511H3.49161H3.47813H3.46467H3.45123H3.43782H3.42442H3.41105H3.39769H3.38436H3.37105H3.35776H3.34449H3.33124H3.31801H3.30481H3.29162H3.27846H3.26532H3.2522H3.2391H3.22602H3.21296H3.19993H3.18691H3.17392H3.16095H3.148H3.13507H3.12217H3.10929H3.09642H3.08358H3.07076H3.05797H3.04519H3.03244H3.01971H3.007H2.99431H2.98165H2.969H2.95638H2.94378H2.93121H2.91865H2.90612H2.89361H2.88112H2.86866H2.85621H2.84379H2.83139H2.81902H2.80666H2.79433H2.78202H2.76974H2.75747H2.74523H2.73302H2.72082H2.70865H2.6965H2.68437H2.67226H2.66018H2.64812H2.63609H2.62408H2.61209H2.60012H2.58817H2.57625H2.56436H2.55248H2.54063H2.5288H2.517H2.50521H2.49346H2.48172H2.47001H2.45832H2.44665H2.43501H2.42339H2.4118H2.40023H2.38868H2.37716H2.36566H2.35418H2.34273H2.3313H2.31989H2.30851H2.29715H2.28582H2.27451H2.26322H2.25196H2.24072H2.22951H2.21832H2.20715H2.19601H2.18489H2.1738H2.16273H2.15168H2.14066H2.12967H2.1187H2.10775H2.09682H2.08592H2.07505H2.0642H2.05337H2.04257H2.0318H2.02105H2.01032H1.99962C1.71642 19.0005 1.48175 18.8817 1.34959 18.7369C1.23225 18.6085 1.19732 18.472 1.2449 18.311C2.1615 15.2093 5.63855 12.7246 10 12.7246C14.3615 12.7246 17.8385 15.2093 18.7551 18.311Z" stroke="black" stroke-width="2" stroke-linejoin="round"/>
</svg>
