<svg width="30" height="30" viewBox="0 0 30 30" fill="none" xmlns="http://www.w3.org/2000/svg">
<rect width="30" height="30" fill="white"/>
<path d="M18.6673 9.82759C18.6673 11.9737 16.994 13.6552 15.0007 13.6552C13.0073 13.6552 11.334 11.9737 11.334 9.82759C11.334 7.68144 13.0073 6 15.0007 6C16.994 6 18.6673 7.68144 18.6673 9.82759Z" stroke="black" stroke-width="2" stroke-linejoin="round"/>
<path d="M23.7551 23.3105C23.8027 23.4715 23.7677 23.608 23.6504 23.7365C23.5183 23.8812 23.2836 24 23.0004 24H22.9897H22.979H22.9682H22.9574H22.9466H22.9358H22.9249H22.9141H22.9032H22.8923H22.8813H22.8703H22.8593H22.8483H22.8373H22.8262H22.8151H22.804H22.7928H22.7817H22.7705H22.7593H22.748H22.7368H22.7255H22.7142H22.7028H22.6915H22.6801H22.6687H22.6573H22.6458H22.6343H22.6228H22.6113H22.5998H22.5882H22.5766H22.565H22.5533H22.5417H22.53H22.5183H22.5065H22.4948H22.483H22.4712H22.4594H22.4475H22.4356H22.4237H22.4118H22.3999H22.3879H22.3759H22.3639H22.3519H22.3398H22.3277H22.3156H22.3035H22.2914H22.2792H22.267H22.2548H22.2425H22.2303H22.218H22.2057H22.1933H22.181H22.1686H22.1562H22.1438H22.1313H22.1189H22.1064H22.0939H22.0813H22.0688H22.0562H22.0436H22.031H22.0184H22.0057H21.993H21.9803H21.9676H21.9548H21.942H21.9292H21.9164H21.9036H21.8907H21.8778H21.8649H21.852H21.839H21.8261H21.8131H21.8001H21.787H21.774H21.7609H21.7478H21.7347H21.7215H21.7084H21.6952H21.682H21.6688H21.6555H21.6422H21.629H21.6156H21.6023H21.589H21.5756H21.5622H21.5488H21.5353H21.5219H21.5084H21.4949H21.4814H21.4678H21.4543H21.4407H21.4271H21.4135H21.3998H21.3861H21.3725H21.3588H21.345H21.3313H21.3175H21.3037H21.2899H21.2761H21.2622H21.2484H21.2345H21.2206H21.2066H21.1927H21.1787H21.1647H21.1507H21.1367H21.1226H21.1086H21.0945H21.0804H21.0662H21.0521H21.0379H21.0237H21.0095H20.9953H20.9811H20.9668H20.9525H20.9382H20.9239H20.9095H20.8952H20.8808H20.8664H20.852H20.8375H20.8231H20.8086H20.7941H20.7796H20.765H20.7505H20.7359H20.7213H20.7067H20.692H20.6774H20.6627H20.648H20.6333H20.6186H20.6039H20.5891H20.5743H20.5595H20.5447H20.5298H20.515H20.5001H20.4852H20.4703H20.4554H20.4404H20.4254H20.4105H20.3955H20.3804H20.3654H20.3503H20.3352H20.3201H20.305H20.2899H20.2747H20.2596H20.2444H20.2292H20.214H20.1987H20.1835H20.1682H20.1529H20.1376H20.1222H20.1069H20.0915H20.0761H20.0607H20.0453H20.0299H20.0144H19.999H19.9835H19.968H19.9524H19.9369H19.9213H19.9058H19.8902H19.8746H19.8589H19.8433H19.8276H19.812H19.7963H19.7805H19.7648H19.7491H19.7333H19.7175H19.7017H19.6859H19.6701H19.6542H19.6384H19.6225H19.6066H19.5907H19.5747H19.5588H19.5428H19.5268H19.5108H19.4948H19.4788H19.4627H19.4467H19.4306H19.4145H19.3984H19.3823H19.3661H19.3499H19.3338H19.3176H19.3014H19.2851H19.2689H19.2526H19.2364H19.2201H19.2038H19.1874H19.1711H19.1547H19.1384H19.122H19.1056H19.0892H19.0727H19.0563H19.0398H19.0233H19.0068H18.9903H18.9738H18.9573H18.9407H18.9241H18.9076H18.8909H18.8743H18.8577H18.841H18.8244H18.8077H18.791H18.7743H18.7576H18.7408H18.7241H18.7073H18.6905H18.6737H18.6569H18.6401H18.6232H18.6064H18.5895H18.5726H18.5557H18.5388H18.5219H18.5049H18.488H18.471H18.454H18.437H18.42H18.4029H18.3859H18.3688H18.3517H18.3347H18.3176H18.3004H18.2833H18.2662H18.249H18.2318H18.2146H18.1974H18.1802H18.163H18.1457H18.1285H18.1112H18.0939H18.0766H18.0593H18.042H18.0246H18.0073H17.9899H17.9725H17.9551H17.9377H17.9203H17.9028H17.8854H17.8679H17.8505H17.833H17.8155H17.7979H17.7804H17.7629H17.7453H17.7277H17.7102H17.6926H17.675H17.6573H17.6397H17.622H17.6044H17.5867H17.569H17.5513H17.5336H17.5159H17.4982H17.4804H17.4626H17.4449H17.4271H17.4093H17.3915H17.3736H17.3558H17.3379H17.3201H17.3022H17.2843H17.2664H17.2485H17.2306H17.2126H17.1947H17.1767H17.1588H17.1408H17.1228H17.1048H17.0867H17.0687H17.0507H17.0326H17.0145H16.9964H16.9784H16.9603H16.9421H16.924H16.9059H16.8877H16.8695H16.8514H16.8332H16.815H16.7968H16.7786H16.7603H16.7421H16.7238H16.7056H16.6873H16.669H16.6507H16.6324H16.6141H16.5957H16.5774H16.559H16.5407H16.5223H16.5039H16.4855H16.4671H16.4487H16.4302H16.4118H16.3933H16.3749H16.3564H16.3379H16.3194H16.3009H16.2824H16.2638H16.2453H16.2268H16.2082H16.1896H16.171H16.1524H16.1338H16.1152H16.0966H16.078H16.0593H16.0407H16.022H16.0033H15.9847H15.966H15.9473H15.9286H15.9098H15.8911H15.8723H15.8536H15.8348H15.8161H15.7973H15.7785H15.7597H15.7409H15.722H15.7032H15.6844H15.6655H15.6467H15.6278H15.6089H15.59H15.5711H15.5522H15.5333H15.5144H15.4955H15.4765H15.4576H15.4386H15.4196H15.4006H15.3816H15.3626H15.3436H15.3246H15.3056H15.2866H15.2675H15.2485H15.2294H15.2103H15.1913H15.1722H15.1531H15.134H15.1149H15.0957H15.0766H15.0575H15.0383H15.0192H15H14.9808H14.9617H14.9425H14.9234H14.9043H14.8851H14.866H14.8469H14.8278H14.8087H14.7897H14.7706H14.7515H14.7325H14.7134H14.6944H14.6754H14.6564H14.6374H14.6184H14.5994H14.5804H14.5614H14.5424H14.5235H14.5045H14.4856H14.4667H14.4478H14.4289H14.41H14.3911H14.3722H14.3533H14.3345H14.3156H14.2968H14.278H14.2591H14.2403H14.2215H14.2027H14.1839H14.1652H14.1464H14.1277H14.1089H14.0902H14.0714H14.0527H14.034H14.0153H13.9967H13.978H13.9593H13.9407H13.922H13.9034H13.8848H13.8662H13.8476H13.829H13.8104H13.7918H13.7732H13.7547H13.7362H13.7176H13.6991H13.6806H13.6621H13.6436H13.6251H13.6067H13.5882H13.5698H13.5513H13.5329H13.5145H13.4961H13.4777H13.4593H13.441H13.4226H13.4043H13.3859H13.3676H13.3493H13.331H13.3127H13.2944H13.2762H13.2579H13.2397H13.2214H13.2032H13.185H13.1668H13.1486H13.1305H13.1123H13.0941H13.076H13.0579H13.0397H13.0216H13.0036H12.9855H12.9674H12.9493H12.9313H12.9133H12.8952H12.8772H12.8592H12.8412H12.8233H12.8053H12.7874H12.7694H12.7515H12.7336H12.7157H12.6978H12.6799H12.6621H12.6442H12.6264H12.6085H12.5907H12.5729H12.5551H12.5374H12.5196H12.5018H12.4841H12.4664H12.4487H12.431H12.4133H12.3956H12.378H12.3603H12.3427H12.325H12.3074H12.2898H12.2723H12.2547H12.2371H12.2196H12.2021H12.1845H12.167H12.1495H12.1321H12.1146H12.0972H12.0797H12.0623H12.0449H12.0275H12.0101H11.9927H11.9754H11.958H11.9407H11.9234H11.9061H11.8888H11.8715H11.8543H11.837H11.8198H11.8026H11.7854H11.7682H11.751H11.7338H11.7167H11.6996H11.6824H11.6653H11.6483H11.6312H11.6141H11.5971H11.58H11.563H11.546H11.529H11.512H11.4951H11.4781H11.4612H11.4443H11.4274H11.4105H11.3936H11.3768H11.3599H11.3431H11.3263H11.3095H11.2927H11.2759H11.2592H11.2424H11.2257H11.209H11.1923H11.1756H11.159H11.1423H11.1257H11.1091H11.0924H11.0759H11.0593H11.0427H11.0262H11.0097H10.9932H10.9767H10.9602H10.9437H10.9273H10.9108H10.8944H10.878H10.8616H10.8453H10.8289H10.8126H10.7962H10.7799H10.7636H10.7474H10.7311H10.7149H10.6986H10.6824H10.6662H10.6501H10.6339H10.6177H10.6016H10.5855H10.5694H10.5533H10.5373H10.5212H10.5052H10.4892H10.4732H10.4572H10.4412H10.4253H10.4093H10.3934H10.3775H10.3616H10.3458H10.3299H10.3141H10.2983H10.2825H10.2667H10.2509H10.2352H10.2195H10.2037H10.188H10.1724H10.1567H10.1411H10.1254H10.1098H10.0942H10.0787H10.0631H10.0476H10.032H10.0165H10.001H9.98556H9.97011H9.95467H9.93925H9.92385H9.90847H9.8931H9.87775H9.86242H9.84711H9.83181H9.81654H9.80128H9.78604H9.77081H9.75561H9.74042H9.72525H9.7101H9.69497H9.67985H9.66475H9.64967H9.63461H9.61957H9.60455H9.58954H9.57455H9.55958H9.54463H9.5297H9.51479H9.49989H9.48502H9.47016H9.45532H9.4405H9.42569H9.41091H9.39615H9.3814H9.36667H9.35196H9.33727H9.3226H9.30795H9.29332H9.27871H9.26411H9.24953H9.23498H9.22044H9.20592H9.19142H9.17694H9.16248H9.14804H9.13362H9.11921H9.10483H9.09047H9.07612H9.0618H9.04749H9.0332H9.01894H9.00469H8.99046H8.97626H8.96207H8.9479H8.93375H8.91962H8.90551H8.89142H8.87735H8.8633H8.84927H8.83526H8.82127H8.8073H8.79336H8.77943H8.76552H8.75163H8.73776H8.72391H8.71008H8.69627H8.68249H8.66872H8.65497H8.64124H8.62754H8.61385H8.60019H8.58654H8.57292H8.55931H8.54573H8.53217H8.51863H8.50511H8.49161H8.47813H8.46467H8.45123H8.43782H8.42442H8.41105H8.39769H8.38436H8.37105H8.35776H8.34449H8.33124H8.31801H8.30481H8.29162H8.27846H8.26532H8.2522H8.2391H8.22602H8.21296H8.19993H8.18691H8.17392H8.16095H8.148H8.13507H8.12217H8.10929H8.09642H8.08358H8.07076H8.05797H8.04519H8.03244H8.01971H8.007H7.99431H7.98165H7.969H7.95638H7.94378H7.93121H7.91865H7.90612H7.89361H7.88112H7.86866H7.85621H7.84379H7.83139H7.81902H7.80666H7.79433H7.78202H7.76974H7.75747H7.74523H7.73302H7.72082H7.70865H7.6965H7.68437H7.67226H7.66018H7.64812H7.63609H7.62408H7.61209H7.60012H7.58817H7.57625H7.56436H7.55248H7.54063H7.5288H7.517H7.50521H7.49346H7.48172H7.47001H7.45832H7.44665H7.43501H7.42339H7.4118H7.40023H7.38868H7.37716H7.36566H7.35418H7.34273H7.3313H7.31989H7.30851H7.29715H7.28582H7.27451H7.26322H7.25196H7.24072H7.22951H7.21832H7.20715H7.19601H7.18489H7.1738H7.16273H7.15168H7.14066H7.12967H7.1187H7.10775H7.09682H7.08592H7.07505H7.0642H7.05337H7.04257H7.0318H7.02105H7.01032H6.99962C6.71642 24 6.48175 23.8812 6.34959 23.7365C6.23225 23.608 6.19732 23.4715 6.2449 23.3105C7.1615 20.2088 10.6385 17.7241 15 17.7241C19.3615 17.7241 22.8385 20.2088 23.7551 23.3105Z" stroke="black" stroke-width="2" stroke-linejoin="round"/>
</svg>
