<svg width="20" height="20" viewBox="0 0 20 20" fill="none" xmlns="http://www.w3.org/2000/svg">
<path d="M2 8.75C1.30964 8.75 0.75 9.30964 0.75 10C0.75 10.6904 1.30964 11.25 2 11.25V8.75ZM18 11.25C18.6904 11.25 19.25 10.6904 19.25 10C19.25 9.30964 18.6904 8.75 18 8.75V11.25ZM2 11.25H18V8.75H2V11.25Z" fill="#4FB61E"/>
<path d="M11.25 2C11.25 1.30964 10.6904 0.75 10 0.75C9.30964 0.75 8.75 1.30964 8.75 2L11.25 2ZM8.75 18C8.75 18.6904 9.30964 19.25 10 19.25C10.6904 19.25 11.25 18.6904 11.25 18L8.75 18ZM8.75 2L8.75 18L11.25 18L11.25 2L8.75 2Z" fill="#4FB61E"/>
</svg>
