<svg width="30" height="30" viewBox="0 0 30 30" fill="none" xmlns="http://www.w3.org/2000/svg">
<mask id="path-2-inside-1_990_287" fill="white">
<path fill-rule="evenodd" clip-rule="evenodd" d="M5.82958 16.1427C4.69995 14.9623 4 13.3234 4 11.5116C4 7.91535 6.75789 5 10.1599 5C12.1231 5 13.8718 5.9708 14.9998 7.48304C16.1278 5.9708 17.8764 5 19.8396 5C23.2416 5 25.9995 7.91535 25.9995 11.5116C25.9995 13.3226 25.3002 14.9609 24.1714 16.1412L24.2395 16.1628L15.4396 25L5.75977 16.1628L5.82958 16.1427Z"/>
</mask>
<path d="M5.82958 16.1427L6.3836 18.0644L9.56043 17.1486L7.27453 14.7599L5.82958 16.1427ZM14.9998 7.48304L13.3966 8.67884L14.9998 10.8281L16.6029 8.67884L14.9998 7.48304ZM24.1714 16.1412L22.726 14.7589L20.5083 17.0777L23.5668 18.0476L24.1714 16.1412ZM24.2395 16.1628L25.6567 17.574L27.9725 15.2485L24.8441 14.2564L24.2395 16.1628ZM15.4396 25L14.0912 26.4771L15.5055 27.7683L16.8568 26.4112L15.4396 25ZM5.75977 16.1628L5.20574 14.2411L1.77257 15.2308L4.41131 17.6399L5.75977 16.1628ZM7.27453 14.7599C6.49763 13.9481 6 12.8031 6 11.5116H2C2 13.8436 2.90227 15.9765 4.38463 17.5255L7.27453 14.7599ZM6 11.5116C6 8.91384 7.96564 7 10.1599 7V3C5.55014 3 2 6.91686 2 11.5116H6ZM10.1599 7C11.4393 7 12.6137 7.62917 13.3966 8.67884L16.6029 6.28723C15.1299 4.31243 12.8068 3 10.1599 3V7ZM16.6029 8.67884C17.3859 7.62917 18.5602 7 19.8396 7V3C17.1927 3 14.8697 4.31243 13.3966 6.28723L16.6029 8.67884ZM19.8396 7C22.0339 7 23.9995 8.91384 23.9995 11.5116H27.9995C27.9995 6.91686 24.4494 3 19.8396 3V7ZM23.9995 11.5116C23.9995 12.8026 23.5023 13.9471 22.726 14.7589L25.6168 17.5235C27.098 15.9747 27.9995 13.8426 27.9995 11.5116H23.9995ZM23.5668 18.0476L23.6349 18.0693L24.8441 14.2564L24.7759 14.2348L23.5668 18.0476ZM22.8223 14.7516L14.0224 23.5888L16.8568 26.4112L25.6567 17.574L22.8223 14.7516ZM16.7881 23.523L7.10822 14.6858L4.41131 17.6399L14.0912 26.4771L16.7881 23.523ZM6.31379 18.0846L6.3836 18.0644L5.27556 14.221L5.20574 14.2411L6.31379 18.0846Z" fill="black" mask="url(#path-2-inside-1_990_287)"/>
</svg>
