<svg width="22" height="20" viewBox="0 0 22 20" fill="none" xmlns="http://www.w3.org/2000/svg">
<mask id="path-1-inside-1_366_3860" fill="white">
<path fill-rule="evenodd" clip-rule="evenodd" d="M1.82958 11.1427C0.699948 9.96228 0 8.32335 0 6.51161C0 2.91535 2.75789 0 6.15992 0C8.12318 0 9.87193 0.970894 10.9999 2.48325C12.1279 0.970894 13.8767 0 15.8399 0C19.242 0 21.9998 2.91535 21.9998 6.51161C21.9998 8.32263 21.3005 9.96098 20.1716 11.1413L20.2395 11.1628L11.4396 20L1.75977 11.1628L1.82958 11.1427Z"/>
</mask>
<path fill-rule="evenodd" clip-rule="evenodd" d="M1.82958 11.1427C0.699948 9.96228 0 8.32335 0 6.51161C0 2.91535 2.75789 0 6.15992 0C8.12318 0 9.87193 0.970894 10.9999 2.48325C12.1279 0.970894 13.8767 0 15.8399 0C19.242 0 21.9998 2.91535 21.9998 6.51161C21.9998 8.32263 21.3005 9.96098 20.1716 11.1413L20.2395 11.1628L11.4396 20L1.75977 11.1628L1.82958 11.1427Z" fill="#FF0000"/>
<path d="M1.82958 11.1427L2.3836 13.0644L5.56043 12.1486L3.27453 9.7599L1.82958 11.1427ZM10.9999 2.48325L9.39674 3.67899L10.9999 5.82846L12.6031 3.67899L10.9999 2.48325ZM20.1716 11.1413L18.7262 9.75894L16.5085 12.0778L19.567 13.0477L20.1716 11.1413ZM20.2395 11.1628L21.6567 12.574L23.9725 10.2485L20.8441 9.25639L20.2395 11.1628ZM11.4396 20L10.0912 21.4771L11.5055 22.7683L12.8568 21.4112L11.4396 20ZM1.75977 11.1628L1.20574 9.24109L-2.22743 10.2308L0.411306 12.6399L1.75977 11.1628ZM3.27453 9.7599C2.49763 8.94807 2 7.80311 2 6.51161H-2C-2 8.8436 -1.09773 10.9765 0.384627 12.5255L3.27453 9.7599ZM2 6.51161C2 3.91384 3.96564 2 6.15992 2V-2C1.55014 -2 -2 1.91686 -2 6.51161H2ZM6.15992 2C7.4394 2 8.61377 2.62923 9.39674 3.67899L12.6031 1.28751C11.1301 -0.687441 8.80696 -2 6.15992 -2V2ZM12.6031 3.67899C13.3861 2.62923 14.5604 2 15.8399 2V-2C13.1929 -2 10.8698 -0.687441 9.39674 1.28751L12.6031 3.67899ZM15.8399 2C18.0342 2 19.9998 3.91384 19.9998 6.51161H23.9998C23.9998 1.91686 20.4497 -2 15.8399 -2V2ZM19.9998 6.51161C19.9998 7.8026 19.5026 8.94716 18.7262 9.75894L21.617 12.5236C23.0983 10.9748 23.9998 8.84267 23.9998 6.51161H19.9998ZM19.567 13.0477L19.6349 13.0693L20.8441 9.25639L20.7762 9.23485L19.567 13.0477ZM18.8223 9.7516L10.0224 18.5888L12.8568 21.4112L21.6567 12.574L18.8223 9.7516ZM12.7881 18.523L3.10822 9.68578L0.411306 12.6399L10.0912 21.4771L12.7881 18.523ZM2.31379 13.0846L2.3836 13.0644L1.27556 9.22096L1.20574 9.24109L2.31379 13.0846Z" fill="#FF0000" mask="url(#path-1-inside-1_366_3860)"/>
</svg>
