<svg width="18" height="18" viewBox="0 0 18 18" fill="none" xmlns="http://www.w3.org/2000/svg">
<path d="M13.6603 5.41005C14.231 5.41005 14.6936 4.9475 14.6936 4.3769C14.6936 3.80631 14.231 3.34375 13.6603 3.34375C13.0896 3.34375 12.627 3.80631 12.627 4.3769C12.627 4.9475 13.0896 5.41005 13.6603 5.41005Z" fill="#4FB61E"/>
<path d="M9.07272 4.66699C6.68145 4.66699 4.7373 6.61077 4.7373 9.00159C4.7373 11.3924 6.68145 13.3362 9.07272 13.3362C11.464 13.3362 13.4081 11.3924 13.4081 9.00159C13.4081 6.61077 11.464 4.66699 9.07272 4.66699ZM9.07272 11.7765C7.54257 11.7765 6.29726 10.5314 6.29726 9.00159C6.29726 7.47173 7.54257 6.22665 9.07272 6.22665C10.6029 6.22665 11.8482 7.47173 11.8482 9.00159C11.8515 10.5314 10.6062 11.7765 9.07272 11.7765Z" fill="#4FB61E"/>
<path d="M12.5142 17.8002H5.48616C2.57159 17.8002 0.200195 15.4292 0.200195 12.5119V5.48516C0.200195 2.57115 2.57159 0.200195 5.48616 0.200195H12.5142C15.4288 0.200195 17.8002 2.57115 17.8002 5.48516V12.5119C17.8035 15.4292 15.4321 17.8002 12.5142 17.8002ZM5.48616 1.85589C3.4857 1.85589 1.8562 3.48509 1.8562 5.48516V12.5119C1.8562 14.5153 3.4857 16.1412 5.48616 16.1412H12.5142C14.518 16.1412 16.1442 14.512 16.1442 12.5119V5.48516C16.1475 3.48509 14.518 1.85589 12.5142 1.85589H5.48616Z" fill="#4FB61E"/>
</svg>
