<svg width="18" height="18" viewBox="0 0 18 18" fill="none" xmlns="http://www.w3.org/2000/svg">
<path d="M6.79858 5.96325L6.79853 5.96322L6.79268 5.97216L5.32968 8.21073L5.01765 8.68818L5.26975 9.1998C6.03049 10.7437 7.28397 11.99 8.83215 12.742L9.34671 12.9919L9.82296 12.675L12.0351 11.2032L12.0351 11.2032L12.0401 11.1998C12.0929 11.1642 12.154 11.1426 12.2175 11.1372C12.281 11.1317 12.3448 11.1425 12.403 11.1686L12.4113 11.1723L12.4197 11.1759L16.5449 12.9351C16.6277 12.9729 16.6967 13.0356 16.7421 13.1146L17.6091 12.6163L16.7421 13.1146C16.7871 13.1929 16.8067 13.2831 16.7983 13.3728C16.6715 14.3179 16.2073 15.1856 15.491 15.8155C14.7719 16.448 13.8476 16.7979 12.8899 16.8002C6.44549 16.7995 1.20081 11.5547 1.2002 5.11025C1.20256 4.15265 1.55246 3.22846 2.18488 2.50938C2.81485 1.79311 3.68246 1.32888 4.62761 1.20209C4.71733 1.19371 4.80752 1.2133 4.88576 1.25828C4.96494 1.30379 5.02782 1.37298 5.06559 1.45606L6.83391 5.58213C6.83394 5.58221 6.83398 5.58228 6.83401 5.58235C6.86025 5.64374 6.87077 5.7107 6.86461 5.77717C6.85844 5.84373 6.83574 5.90769 6.79858 5.96325Z" stroke="#4FB61E" stroke-width="2"/>
</svg>
