<svg width="20" height="17" viewBox="0 0 20 17" fill="none" xmlns="http://www.w3.org/2000/svg">
<path d="M18.0074 0.799805C18.5498 0.799805 18.9589 1.27556 18.7401 2.16046L16.0854 14.6727C15.8998 15.5624 15.3622 15.7765 14.6201 15.3626L8.28779 10.6859C8.26323 10.6683 8.24322 10.6451 8.22942 10.6182C8.21562 10.5913 8.20843 10.5615 8.20843 10.5313C8.20843 10.5011 8.21562 10.4713 8.22942 10.4444C8.24322 10.4175 8.26323 10.3943 8.28779 10.3767L15.6001 3.77326C15.9331 3.47829 15.5287 3.33557 15.091 3.60199L5.91378 9.39189C5.88595 9.41005 5.85435 9.42162 5.82138 9.42574C5.7884 9.42986 5.75493 9.42642 5.72348 9.41568L1.82707 8.18348C0.9612 7.93133 0.9612 7.33664 2.02213 6.91322L17.6125 0.899713C17.7362 0.840396 17.8704 0.806427 18.0074 0.799805Z" stroke="#4FB61E" stroke-width="1.5" stroke-linecap="round" stroke-linejoin="round"/>
</svg>
