<svg width="22" height="22" viewBox="0 0 22 22" fill="none" xmlns="http://www.w3.org/2000/svg">
<path fill-rule="evenodd" clip-rule="evenodd" d="M11.0025 0C4.93619 0 0.000623047 4.9357 0.000623047 11.0021C0.000623047 13.1346 0.606819 15.1855 1.75902 16.9654L0.0866072 20.6457C-0.0681666 20.9853 -0.0122753 21.3809 0.228484 21.6646C0.413353 21.8839 0.684205 22 0.959359 22C1.04534 22 1.13133 21.9871 1.21302 21.9656L5.81754 20.7016C7.40827 21.5529 9.18817 22 10.9982 22C17.0644 22 22 17.0643 22 10.9978C22.0043 4.9357 17.0687 0 11.0025 0ZM11.0025 20.0825C9.39453 20.0825 7.8167 19.6568 6.43234 18.8442C6.28186 18.7583 6.11849 18.711 5.94652 18.711C5.86053 18.711 5.77455 18.7239 5.69286 18.7454L2.68337 19.5708L3.73239 17.2621C3.87426 16.9482 3.83988 16.5828 3.63781 16.3033C2.5157 14.7512 1.92669 12.9154 1.92669 10.9978C1.92669 5.98906 5.99811 1.91753 11.0068 1.91753C16.0154 1.91753 20.0868 5.98906 20.0868 10.9978C20.0825 16.0066 16.0111 20.0825 11.0025 20.0825Z" fill="#4FB61E"/>
<path fill-rule="evenodd" clip-rule="evenodd" d="M15.2346 12.6497C14.7746 12.3745 14.1727 12.065 13.631 12.2886C13.214 12.4605 12.9474 13.1097 12.6809 13.4451C12.5433 13.6171 12.3756 13.6429 12.1649 13.5569C10.6 12.9335 9.4048 11.8887 8.54065 10.4527C8.39447 10.2291 8.42027 10.0529 8.59654 9.8465C8.8588 9.54124 9.18554 9.19299 9.25433 8.77595C9.32312 8.36321 9.12965 7.87738 8.96198 7.51193C8.74271 7.0433 8.49766 6.37259 8.02904 6.10603C7.59481 5.86096 7.02301 5.99854 6.64037 6.3124C5.97398 6.85412 5.65154 7.7054 5.66443 8.54809C5.66873 8.78885 5.69453 9.02532 5.75042 9.25748C5.8837 9.81211 6.14165 10.3323 6.4297 10.8268C6.64897 11.2008 6.88543 11.5577 7.13909 11.9059C7.97315 13.041 9.01357 14.0298 10.2217 14.765C10.8236 15.1348 11.4728 15.4572 12.1434 15.6765C12.8958 15.9258 13.5665 16.1838 14.3791 16.029C15.2303 15.8657 16.0687 15.3411 16.4083 14.5199C16.5072 14.2792 16.5588 14.0083 16.5029 13.7504C16.3825 13.2215 15.6645 12.9077 15.2346 12.6497Z" fill="#4FB61E"/>
</svg>
