<svg width="46" height="46" viewBox="0 0 46 46" fill="none" xmlns="http://www.w3.org/2000/svg">
<g clip-path="url(#clip0_813_6201)">
<path fill-rule="evenodd" clip-rule="evenodd" d="M23 32.5C23 31.6716 23.5756 31 24.2857 31L33.7143 31C34.4244 31 35 31.6716 35 32.5C35 33.3284 34.4244 34 33.7143 34L24.2857 34C23.5756 34 23 33.3284 23 32.5Z" fill="#4FB61E"/>
<path fill-rule="evenodd" clip-rule="evenodd" d="M17 22.5C17 21.6716 17.5756 21 18.2857 21L33.7143 21C34.4244 21 35 21.6716 35 22.5C35 23.3284 34.4244 24 33.7143 24L18.2857 24C17.5756 24 17 23.3284 17 22.5Z" fill="#4FB61E"/>
<path fill-rule="evenodd" clip-rule="evenodd" d="M11 12.5C11 11.6716 11.5756 11 12.2857 11L33.7143 11C34.4244 11 35 11.6716 35 12.5C35 13.3284 34.4244 14 33.7143 14L12.2857 14C11.5756 14 11 13.3284 11 12.5Z" fill="#4FB61E"/>
</g>
<path d="M8 2H38V-2H8V2ZM44 8V38H48V8H44ZM38 44H8V48H38V44ZM2 38V8H-2V38H2ZM8 44C4.68629 44 2 41.3137 2 38H-2C-2 43.5228 2.47715 48 8 48V44ZM44 38C44 41.3137 41.3137 44 38 44V48C43.5228 48 48 43.5228 48 38H44ZM38 2C41.3137 2 44 4.68629 44 8H48C48 2.47715 43.5228 -2 38 -2V2ZM8 -2C2.47715 -2 -2 2.47715 -2 8H2C2 4.68629 4.68629 2 8 2V-2Z" fill="#4FB61E"/>
<defs>
<clipPath id="clip0_813_6201">
<path d="M0 8C0 3.58172 3.58172 0 8 0H38C42.4183 0 46 3.58172 46 8V38C46 42.4183 42.4183 46 38 46H8C3.58172 46 0 42.4183 0 38V8Z" fill="white"/>
</clipPath>
</defs>
</svg>
