<svg width="20" height="20" viewBox="0 0 20 20" fill="none" xmlns="http://www.w3.org/2000/svg">
<path d="M15.2954 5.91948C15.9439 5.91948 16.4696 5.39385 16.4696 4.74545C16.4696 4.09704 15.9439 3.57141 15.2954 3.57141C14.6468 3.57141 14.1211 4.09704 14.1211 4.74545C14.1211 5.39385 14.6468 5.91948 15.2954 5.91948Z" fill="#4FB61E"/>
<path d="M10.0829 5.07666C7.36551 5.07666 5.15625 7.2855 5.15625 10.0023C5.15625 12.7192 7.36551 14.928 10.0829 14.928C12.8002 14.928 15.0095 12.7192 15.0095 10.0023C15.0095 7.2855 12.8002 5.07666 10.0829 5.07666ZM10.0829 13.1557C8.34406 13.1557 6.92893 11.7408 6.92893 10.0023C6.92893 8.26387 8.34406 6.849 10.0829 6.849C11.8217 6.849 13.2368 8.26387 13.2368 10.0023C13.2406 11.7408 11.8254 13.1557 10.0829 13.1557Z" fill="#4FB61E"/>
<path d="M13.9932 20H6.00677C2.69477 20 0 17.3057 0 13.9906V6.00564C0 2.69426 2.69477 0 6.00677 0H13.9932C17.3052 0 20 2.69426 20 6.00564V13.9906C20.0038 17.3057 17.309 20 13.9932 20ZM6.00677 1.88147C3.73353 1.88147 1.88182 3.73283 1.88182 6.00564V13.9906C1.88182 16.2672 3.73353 18.1148 6.00677 18.1148H13.9932C16.2702 18.1148 18.1182 16.2634 18.1182 13.9906V6.00564C18.1219 3.73283 16.2702 1.88147 13.9932 1.88147H6.00677Z" fill="#4FB61E"/>
</svg>
