<svg width="17" height="22" viewBox="0 0 17 22" fill="none" xmlns="http://www.w3.org/2000/svg">
<path d="M16 8C16 9.28002 15.5412 10.744 14.7774 12.2715C14.0195 13.7875 12.998 15.2936 11.9587 16.6386C10.9218 17.9805 9.88233 19.1425 9.10111 19.9696C8.87694 20.207 8.67449 20.4163 8.5 20.5939C8.32551 20.4163 8.12306 20.207 7.89889 19.9696C7.11767 19.1425 6.07822 17.9805 5.04129 16.6386C4.002 15.2936 2.98051 13.7875 2.22255 12.2715C1.45878 10.744 1 9.28002 1 8C1 4.19026 4.29989 1 8.5 1C12.7001 1 16 4.19026 16 8Z" stroke="#4FB61E" stroke-width="2"/>
<circle cx="8.63636" cy="8.63636" r="2.63636" stroke="#4FB61E" stroke-width="2"/>
</svg>
