<svg width="20" height="20" viewBox="0 0 20 20" fill="none" xmlns="http://www.w3.org/2000/svg">
<path fill-rule="evenodd" clip-rule="evenodd" d="M10.0022 0C4.48744 0 0.000566406 4.487 0.000566406 10.002C0.000566406 11.9406 0.551653 13.805 1.59911 15.4231L0.0787338 18.7688C-0.0619697 19.0776 -0.0111593 19.4372 0.207713 19.6951C0.375775 19.8945 0.622005 20 0.872144 20C0.950313 20 1.02849 19.9883 1.10275 19.9687L5.28867 18.8196C6.73479 19.5935 8.35288 20 9.99833 20C15.5131 20 20 15.513 20 9.99804C20.0039 4.487 15.517 0 10.0022 0ZM10.0022 18.2568C8.54048 18.2568 7.10609 17.8698 5.84758 17.1311C5.71078 17.053 5.56226 17.01 5.40592 17.01C5.32776 17.01 5.24959 17.0217 5.17533 17.0412L2.43943 17.7917L3.39308 15.6928C3.52206 15.4075 3.4908 15.0752 3.3071 14.8212C2.287 13.4102 1.75154 11.7413 1.75154 9.99804C1.75154 5.4446 5.45283 1.74321 10.0061 1.74321C14.5595 1.74321 18.2607 5.4446 18.2607 9.99804C18.2568 14.5515 14.5556 18.2568 10.0022 18.2568Z" fill="#4FB61E"/>
<path fill-rule="evenodd" clip-rule="evenodd" d="M13.847 11.4995C13.4288 11.2493 12.8816 10.9679 12.3891 11.1712C12.01 11.3275 11.7677 11.9177 11.5254 12.2225C11.4003 12.3789 11.2479 12.4023 11.0564 12.3242C9.6337 11.7574 8.54716 10.8077 7.76156 9.5022C7.62868 9.29896 7.65213 9.13871 7.81237 8.9511C8.05079 8.67359 8.34783 8.357 8.41036 7.97787C8.4729 7.60265 8.29702 7.16099 8.14459 6.82876C7.94526 6.40273 7.72248 5.793 7.29646 5.55067C6.90171 5.32788 6.38189 5.45296 6.03404 5.73828C5.42823 6.23076 5.1351 7.00465 5.14682 7.77072C5.15073 7.9896 5.17418 8.20457 5.22499 8.41563C5.34615 8.91983 5.58066 9.39277 5.84252 9.84225C6.04185 10.1823 6.25682 10.5067 6.48742 10.8233C7.24565 11.8551 8.19149 12.7541 9.28976 13.4225C9.83694 13.7586 10.4271 14.0517 11.0368 14.2511C11.7208 14.4778 12.3305 14.7123 13.0692 14.5716C13.8431 14.4231 14.6052 13.9462 14.914 13.1997C15.0039 12.9808 15.0508 12.7346 15 12.5001C14.8905 12.0193 14.2378 11.734 13.847 11.4995Z" fill="#4FB61E"/>
</svg>
